<svg xmlns="http://www.w3.org/2000/svg" xmlns:xlink="http://www.w3.org/1999/xlink" viewBox="0 0 310.5 344.25"><defs><style>.a{fill:none;}.b{fill:#dcf2e6;stroke-width:4px;}.b,.f,.g,.h,.i,.k,.p{stroke:#000;stroke-miterlimit:10;}.c{clip-path:url(#a);}.d{fill:#260101;}.e,.f{fill:#ffe1bd;}.g{fill:#00a99d;stroke-width:0.5px;}.h,.j,.p{fill:#fff;}.i,.k{fill:#a7d0d9;stroke-width:0.1px;}.i{opacity:0.99;}.l{fill:#f39686;}.m{fill:#f28478;}.n{fill:#42210b;}.o{fill:#735851;}.p{stroke-width:0.25px;}</style><clipPath id="a" transform="translate(-524.5 -40)"><circle class="a" cx="680.57" cy="212.81" r="153.25"/></clipPath></defs><title>VectorSelf-circle</title><circle class="b" cx="155.25" cy="172.75" r="153.25"/><g class="c"><path class="d" d="M646.2,335.23c-8.64-5.3-15.42-13.09-28.62-28.47-11.45-13.33-17.17-20-20.61-25.47-21.1-33.6-6.88-92.51,2.29-136.35,7.12-34.06,12.89-60.21,32.06-80.91C636,59,653,41.18,678.26,40.06c33.18-1.48,55,26.84,59.54,33,14.85,20.25,18.49,41.86,24.05,74.92,6.38,37.9,4.29,67.67,1.14,112.37-.47,6.72,0,15-3.43,24-5.83,15.26-19.48,27.12-22.9,30-3.25,2.7-7.91,6.11-11.45,13.49-2.51,5.23-2,7.38-3.44,10.49-5.7,12.5-27.8,8.8-44.65,6C662.22,341.73,654.78,340.49,646.2,335.23Z" transform="translate(-524.5 -40)"/><polygon class="e" points="139.5 189 138.5 208 130.5 213 155.5 236 180.5 209 171.5 207 170.5 186 139.5 189"/><path class="f" d="M625,177c.41,6,1.29,19,10,31,2.57,3.53,5.71,6.35,12,12,3.21,2.88,14.35,12.65,27,17a19.36,19.36,0,0,0,4,1c1.29.17,6.69.77,16-4a54.2,54.2,0,0,0,8-5c13.24-10.09,19.86-15.14,23-19,3.26-4,8-11.53,10-32,3-30.38,5.86-60.39-15-80-1.62-1.53-20.14-18.43-43-15C637.24,89,623.21,150.57,625,177Z" transform="translate(-524.5 -40)"/><path class="g" d="M653.62,252.55c-1.6-1.31-4.21-.87-9.43,0-8.29,1.38-17.52,4.95-23,9.55-7.7,6.42-5.54,12.63-11.52,47.78,0,0-5.45,32-1,55.21a7.71,7.71,0,0,0,2.09,4.25c2.62,2.46,6.51,1.61,12.57,1.06,12.16-1.11,13.32.79,15.72-1.06,4.92-3.82,2.26-13.62,1-24.42-1.85-16.38.33-28.66,3.15-44.6C648.06,272.58,659.2,257.11,653.62,252.55Z" transform="translate(-524.5 -40)"/><path class="g" d="M706.88,252.31c1.53-1.31,4-.87,9,0,7.92,1.39,16.73,5,22,9.58,7.35,6.42,5.29,12.64,11,47.87,0,0,5.2,32,1,55.32a7.79,7.79,0,0,1-2,4.25c-2.49,2.47-6.21,1.62-12,1.07-11.6-1.11-12.71.79-15-1.07-4.7-3.82-2.16-13.64-1-24.47,1.77-16.41-.3-28.71-3-44.68C712.2,272.39,701.56,256.89,706.88,252.31Z" transform="translate(-524.5 -40)"/><path class="g" d="M630.5,285.6c-1.32,6.93,3.2,9.14,3,25.16-.12,9.75-1.86,14.14,0,22.88,1.38,6.49,2.9,6.65,5,13.73,4.25,14.29-.17,19.54,3,26.31,4.72,10.07,20,10.17,39,10.29,19.77.13,32.25.21,38-9.15,3.36-5.48.34-7.55,5-28.6,2.27-10.25,3.56-12.32,4-19.44.67-10.67-1.84-12.07-1-20.59,1.29-13.09,7.8-16,7-22.88-1.44-12.4-24.18-18.44-28-19.45C673.62,255.4,634.13,266.52,630.5,285.6Z" transform="translate(-524.5 -40)"/><path class="g" d="M661,244c-3,.25-5.57.46-8,2a12.41,12.41,0,0,0-5,7c-1.15,4,0,7.34,1,10a23.67,23.67,0,0,0,8,11c1.86,1.34,3.06,1.68,6,4s3.16,3.1,4,3c3-.36,1.38-10.36,8-16,1.64-1.39,3.08-1.92,3-3-.17-2.41-7.49-1.36-11-6-3.32-4.39-.92-10.82-4-12A5.63,5.63,0,0,0,661,244Z" transform="translate(-524.5 -40)"/><path class="g" d="M698,244.47c3,.25,5.57.46,8,2a12.41,12.41,0,0,1,5,7c1.15,4,0,7.35-1,10a23.63,23.63,0,0,1-8,11c-1.86,1.34-3.06,1.69-6,4s-3.15,3.1-4,3c-3-.36-1.38-10.36-8-16-1.64-1.39-3.07-1.92-3-3,.17-2.41,7.49-1.36,11-6,3.32-4.39.92-10.82,4-12A5.63,5.63,0,0,1,698,244.47Z" transform="translate(-524.5 -40)"/><path class="h" d="M634,148.19c-.08-.18,8.89-7.55,19.43-5.71,9.19,1.61,14.69,9.37,14.57,9.52s-5.54-7-14.57-8.56C643,141.61,634.08,148.38,634,148.19Z" transform="translate(-524.5 -40)"/><path class="h" d="M724.89,148.79c.09-.18-8.88-7.55-19.42-5.71-9.2,1.61-14.7,9.37-14.57,9.52s5.54-7,14.57-8.57C715.94,142.2,724.81,149,724.89,148.79Z" transform="translate(-524.5 -40)"/><path class="h" d="M669,156c.43-5.5-9.27-11.57-18-12-7.71-.38-17.51,3.51-18,9s8.38,11,16,12C657.85,166.14,668.56,161.55,669,156Z" transform="translate(-524.5 -40)"/><path class="h" d="M689.89,156.36c-.43-5.5,9.27-11.57,18-12,7.71-.37,17.51,3.51,18,9s-8.38,11-16,12C701,166.5,690.33,161.91,689.89,156.36Z" transform="translate(-524.5 -40)"/><path class="d" d="M693.07,135.52c-1.61.47-3.33,1-3.48,2-.16,1.13,1.8,2.45,3.48,3,5.45,1.8,8.76-4.18,16.23-4,2.79.07,4,1.28,12.74,3,1.14.23,3.09.6,3.48,0s-1.15-2.15-2.32-3a13.56,13.56,0,0,0-4.63-2,81.55,81.55,0,0,0-8.11-2C705.34,131.93,701.25,133.13,693.07,135.52Z" transform="translate(-524.5 -40)"/><path class="d" d="M665.52,136c1.61.47,3.33,1,3.48,2s-1.8,2.45-3.48,3c-5.45,1.8-8.76-4.18-16.22-4-2.79.07-4,1.27-12.75,3-1.14.22-3.08.59-3.48,0s1.16-2.16,2.32-3a13.14,13.14,0,0,1,4.64-2,80.16,80.16,0,0,1,8.11-2C653.25,132.41,657.34,133.61,665.52,136Z" transform="translate(-524.5 -40)"/><ellipse class="i" cx="127.5" cy="113.25" rx="7.5" ry="6.75"/><circle cx="127.5" cy="112" r="4"/><circle class="j" cx="125.5" cy="110" r="2"/><ellipse class="k" cx="181.39" cy="113.17" rx="7.5" ry="6.75"/><circle cx="181.5" cy="113" r="4"/><circle class="j" cx="179.5" cy="110" r="2"/><path class="d" d="M690,75c4.41,6.12-10.66,26.1-27,38-15.53,11.31-38.47,19.91-43,14-4.65-6.07,10-27.52,28-40C663.43,76.28,685.74,69.08,690,75Z" transform="translate(-524.5 -40)"/><path class="l" d="M660,204c0-1.26,10.07-2.22,18.5-2,8.64.22,18.54,1.75,18.5,3s-9.66,2.12-17.47,2C670.35,206.86,660,205.28,660,204Z" transform="translate(-524.5 -40)"/><path class="m" d="M658,204.92c-1.18,2.14,7.88,10.4,19,11,10.17.59,19.88-5.31,21-9.34a1.16,1.16,0,0,0,0-.85c-1-2.31-10.66.08-23,0C663.43,205.69,658.78,203.51,658,204.92Z" transform="translate(-524.5 -40)"/><path d="M655,203c-.07.64,9.53,5.19,21.53,5.88,13.6.78,24.53-3.72,24.47-4.41s-9.58,2.17-24.47,1.47C663.45,205.35,655.07,202.43,655,203Z" transform="translate(-524.5 -40)"/><path class="d" d="M689,63c-6.18,4.15-1.85,31,17,45,13.8,10.25,34.62,13,38,7C750.28,103.73,699.25,56.12,689,63Z" transform="translate(-524.5 -40)"/><ellipse cx="654.83" cy="202.56" rx="2.22" ry="1" transform="translate(-403.83 592.1) rotate(-55.99)"/><ellipse cx="700.64" cy="203.79" rx="1" ry="2.22" transform="translate(-518.65 386.72) rotate(-34.01)"/><path class="n" d="M670,182a4.14,4.14,0,0,0-2,1,3.58,3.58,0,0,0-1,3,3.54,3.54,0,0,0,3,3c1.31.08,1.59-1.08,3-1a4.24,4.24,0,0,1,3,2c.64,1,.37,1.51,1,2a2.76,2.76,0,0,0,3,0c1.12-.74.7-1.85,2-3a4.63,4.63,0,0,1,2-1c1.87-.46,2.58.51,4,0a3.43,3.43,0,0,0,2-2c.44-1.24-.1-2.57-1-4-2.61-4.15-8.52-9.55-11-8-1.41.88-.06,3-2,5C674.32,180.74,670.73,181.8,670,182Z" transform="translate(-524.5 -40)"/><path class="e" d="M670.36,177.73a3.74,3.74,0,0,0-2,1.17,4.81,4.81,0,0,0-1,3.53c.24,1.94,1.65,3.43,2.93,3.52s1.55-1.27,2.92-1.17a4.18,4.18,0,0,1,2.92,2.35c.63,1.17.37,1.78,1,2.35a2.32,2.32,0,0,0,2.92,0,3.25,3.25,0,0,0,.69-.95c.81-1.38.74-1.91,1.26-2.58a3.71,3.71,0,0,1,2-1.17c1.82-.55,2.51.6,3.9,0a3.78,3.78,0,0,0,2-2.35c.43-1.46-.1-3-1-4.7-2.54-4.88-8.3-11.23-10.72-9.41-1.37,1-.06,3.53-1.95,5.88C674.56,176.24,671.07,177.48,670.36,177.73Z" transform="translate(-524.5 -40)"/><path class="e" d="M682,187" transform="translate(-524.5 -40)"/><path class="o" d="M695,194" transform="translate(-524.5 -40)"/><path class="n" d="M685.06,164c-.44.07-.52,2.07-.42,4.64A17.56,17.56,0,0,0,685,172a18,18,0,0,0,1,3c.47,1.22.79,2.05,1,2s.19-1.75,0-3c-.29-2.23-.78-2.11-1-4a28.38,28.38,0,0,1,0-4h0v-1h0S685.39,163.94,685.06,164Z" transform="translate(-524.5 -40)"/><path class="e" d="M693,176" transform="translate(-524.5 -40)"/><circle class="p" cx="155" cy="227.5" r="1.5"/><circle class="p" cx="155" cy="237.5" r="1.5"/><circle class="p" cx="155" cy="232.5" r="1.5"/></g></svg>